<svg width="105" height="24" viewBox="0 0 105 24" fill="none" xmlns="http://www.w3.org/2000/svg">
<path d="M12.4446 7.72301C12.3736 6.94176 12.0575 6.33452 11.4964 5.90128C10.9425 5.46094 10.1506 5.24077 9.12074 5.24077C8.43892 5.24077 7.87074 5.32955 7.41619 5.5071C6.96165 5.68466 6.62074 5.92969 6.39347 6.24219C6.16619 6.54759 6.04901 6.89915 6.0419 7.29688C6.0277 7.62358 6.09162 7.91122 6.23367 8.1598C6.38281 8.40838 6.59588 8.62855 6.87287 8.82031C7.15696 9.00497 7.49787 9.16832 7.8956 9.31037C8.29332 9.45241 8.74077 9.5767 9.23793 9.68324L11.1129 10.1094C12.1925 10.3438 13.1442 10.6562 13.968 11.0469C14.799 11.4375 15.495 11.9027 16.0561 12.4425C16.6243 12.9822 17.054 13.6037 17.3452 14.3068C17.6364 15.0099 17.7855 15.7983 17.7926 16.6719C17.7855 18.0497 17.4375 19.2322 16.7486 20.2195C16.0597 21.2067 15.0689 21.9631 13.7763 22.4886C12.4908 23.0142 10.9389 23.277 9.12074 23.277C7.29545 23.277 5.70455 23.0036 4.34801 22.4567C2.99148 21.9098 1.93679 21.0788 1.18395 19.9638C0.431108 18.8487 0.0440341 17.4389 0.0227273 15.7344H5.07244C5.11506 16.4375 5.30327 17.0234 5.63707 17.4922C5.97088 17.9609 6.42898 18.3161 7.01136 18.5575C7.60085 18.799 8.28267 18.9197 9.05682 18.9197C9.76705 18.9197 10.3707 18.8239 10.8679 18.6321C11.3722 18.4403 11.7592 18.174 12.0291 17.8331C12.299 17.4922 12.4375 17.1016 12.4446 16.6612C12.4375 16.2493 12.3097 15.8977 12.0611 15.6065C11.8125 15.3082 11.429 15.0526 10.9105 14.8395C10.3991 14.6193 9.74574 14.4169 8.95028 14.2322L6.67045 13.6996C4.78125 13.2663 3.29332 12.5668 2.20668 11.6009C1.12003 10.6278 0.580256 9.31392 0.587358 7.65909C0.580256 6.30966 0.942472 5.12713 1.67401 4.11151C2.40554 3.09588 3.41761 2.30398 4.71023 1.7358C6.00284 1.16761 7.47656 0.883522 9.13139 0.883522C10.8217 0.883522 12.2884 1.17116 13.5312 1.74645C14.7812 2.31463 15.7507 3.11364 16.4396 4.14347C17.1286 5.1733 17.4801 6.36648 17.4943 7.72301H12.4446ZM28.0945 23.3089C26.3686 23.3089 24.8878 22.9538 23.652 22.2436C22.4233 21.5334 21.4787 20.5462 20.8182 19.282C20.1577 18.0107 19.8274 16.5405 19.8274 14.8714C19.8274 13.1953 20.1577 11.7251 20.8182 10.4609C21.4858 9.18963 22.4339 8.19886 23.6626 7.48864C24.8984 6.77841 26.3722 6.4233 28.0838 6.4233C29.5966 6.4233 30.9141 6.69673 32.0362 7.24361C33.1655 7.79048 34.0462 8.56463 34.6783 9.56605C35.3175 10.5604 35.6548 11.7287 35.6903 13.071H30.8217C30.7223 12.233 30.4382 11.576 29.9695 11.1001C29.5078 10.6243 28.9041 10.3864 28.1584 10.3864C27.5547 10.3864 27.0256 10.5568 26.571 10.8977C26.1165 11.2315 25.7614 11.7287 25.5057 12.3892C25.2571 13.0426 25.1328 13.8523 25.1328 14.8182C25.1328 15.7841 25.2571 16.6009 25.5057 17.2685C25.7614 17.929 26.1165 18.4297 26.571 18.7706C27.0256 19.1044 27.5547 19.2713 28.1584 19.2713C28.6413 19.2713 29.0675 19.1683 29.4368 18.9624C29.8132 18.7564 30.1222 18.4545 30.3636 18.0568C30.6051 17.652 30.7578 17.1619 30.8217 16.5866H35.6903C35.6406 17.9361 35.3033 19.1151 34.6783 20.1236C34.0604 21.1321 33.1903 21.9169 32.0682 22.478C30.9531 23.032 29.6286 23.3089 28.0945 23.3089ZM43.5659 13.6676V23H38.3564V1.18182H43.3954V9.64062H43.5765C43.9458 8.6321 44.5495 7.84375 45.3876 7.27557C46.2328 6.70739 47.2662 6.4233 48.4877 6.4233C49.6383 6.4233 50.6397 6.67898 51.492 7.19034C52.3443 7.6946 53.0048 8.40838 53.4735 9.33168C53.9494 10.255 54.1838 11.3345 54.1767 12.5703V23H48.9672V13.593C48.9743 12.6839 48.747 11.9737 48.2853 11.4624C47.8237 10.951 47.1738 10.6953 46.3358 10.6953C45.7889 10.6953 45.3059 10.8161 44.8869 11.0575C44.475 11.2919 44.1518 11.6293 43.9174 12.0696C43.6902 12.5099 43.573 13.0426 43.5659 13.6676ZM65.0671 23.3089C63.3484 23.3089 61.8711 22.9574 60.6353 22.2543C59.4066 21.544 58.4585 20.5568 57.7908 19.2926C57.1303 18.0213 56.8001 16.5476 56.8001 14.8714C56.8001 13.1882 57.1303 11.7145 57.7908 10.4503C58.4585 9.17898 59.4066 8.19176 60.6353 7.48864C61.8711 6.77841 63.3484 6.4233 65.0671 6.4233C66.7859 6.4233 68.2596 6.77841 69.4883 7.48864C70.7241 8.19176 71.6722 9.17898 72.3327 10.4503C73.0004 11.7145 73.3342 13.1882 73.3342 14.8714C73.3342 16.5476 73.0004 18.0213 72.3327 19.2926C71.6722 20.5568 70.7241 21.544 69.4883 22.2543C68.2596 22.9574 66.7859 23.3089 65.0671 23.3089ZM65.0991 19.3778C65.7241 19.3778 66.2532 19.1861 66.6864 18.8026C67.1197 18.419 67.4499 17.8864 67.6772 17.2045C67.9116 16.5227 68.0288 15.7344 68.0288 14.8395C68.0288 13.9304 67.9116 13.1349 67.6772 12.4531C67.4499 11.7713 67.1197 11.2386 66.6864 10.8551C66.2532 10.4716 65.7241 10.2798 65.0991 10.2798C64.4528 10.2798 63.9059 10.4716 63.4585 10.8551C63.0181 11.2386 62.6808 11.7713 62.4464 12.4531C62.2191 13.1349 62.1055 13.9304 62.1055 14.8395C62.1055 15.7344 62.2191 16.5227 62.4464 17.2045C62.6808 17.8864 63.0181 18.419 63.4585 18.8026C63.9059 19.1861 64.4528 19.3778 65.0991 19.3778Z" fill="#FFC13B"/>
<path d="M79.1669 1.18182V23H76.6527V1.18182H79.1669ZM88.5872 23.3835C87.5502 23.3835 86.6092 23.1882 85.764 22.7976C84.9189 22.3999 84.2477 21.8281 83.7505 21.0824C83.2534 20.3295 83.0048 19.4205 83.0048 18.3551C83.0048 17.4176 83.1895 16.6577 83.5588 16.0753C83.9281 15.4858 84.4217 15.0241 85.0396 14.6903C85.6575 14.3565 86.3393 14.108 87.085 13.9446C87.8379 13.7741 88.5943 13.6392 89.3542 13.5398C90.3485 13.4119 91.1547 13.3161 91.7726 13.2521C92.3976 13.1811 92.8521 13.0639 93.1362 12.9006C93.4274 12.7372 93.573 12.4531 93.573 12.0483V11.9631C93.573 10.9119 93.2853 10.0952 92.7101 9.51278C92.1419 8.9304 91.2789 8.6392 90.1213 8.6392C88.921 8.6392 87.9799 8.90199 87.2981 9.42756C86.6163 9.95312 86.1369 10.5142 85.8599 11.1108L83.4735 10.2585C83.8997 9.2642 84.4679 8.49006 85.1781 7.93608C85.8954 7.375 86.6767 6.98437 87.5218 6.7642C88.3741 6.53693 89.2122 6.4233 90.036 6.4233C90.5616 6.4233 91.1653 6.48722 91.8471 6.61506C92.536 6.73579 93.2001 6.98793 93.8393 7.37145C94.4856 7.75497 95.0218 8.33381 95.448 9.10795C95.8741 9.8821 96.0872 10.919 96.0872 12.2188V23H93.573V20.7841H93.4451C93.2747 21.1392 92.9906 21.5192 92.5929 21.924C92.1951 22.3288 91.666 22.6733 91.0055 22.9574C90.345 23.2415 89.5389 23.3835 88.5872 23.3835ZM88.9707 21.125C89.965 21.125 90.8031 20.9297 91.4849 20.5391C92.1738 20.1484 92.6923 19.6442 93.0403 19.0263C93.3954 18.4084 93.573 17.7585 93.573 17.0767V14.7756C93.4664 14.9034 93.2321 15.0206 92.8699 15.1271C92.5147 15.2266 92.1028 15.3153 91.6341 15.3935C91.1724 15.4645 90.7214 15.5284 90.2811 15.5852C89.8478 15.6349 89.4963 15.6776 89.2264 15.7131C88.573 15.7983 87.9622 15.9368 87.394 16.1286C86.8329 16.3132 86.3784 16.5937 86.0304 16.9702C85.6895 17.3395 85.519 17.8437 85.519 18.483C85.519 19.3565 85.8422 20.017 86.4885 20.4645C87.1419 20.9048 87.9693 21.125 88.9707 21.125ZM102.509 23.1705C101.983 23.1705 101.532 22.9822 101.156 22.6058C100.779 22.2294 100.591 21.7784 100.591 21.2528C100.591 20.7273 100.779 20.2763 101.156 19.8999C101.532 19.5234 101.983 19.3352 102.509 19.3352C103.034 19.3352 103.485 19.5234 103.862 19.8999C104.238 20.2763 104.426 20.7273 104.426 21.2528C104.426 21.6009 104.337 21.9205 104.16 22.2116C103.989 22.5028 103.759 22.7372 103.467 22.9148C103.183 23.0852 102.864 23.1705 102.509 23.1705Z" fill="black"/>
</svg>
