<svg width="50" height="50" viewBox="0 0 50 50" fill="none" xmlns="http://www.w3.org/2000/svg">
<rect width="50" height="50" rx="5" fill="white"/>
<path d="M8.37784 23.8892C8.34943 23.5767 8.22301 23.3338 7.99858 23.1605C7.77699 22.9844 7.46023 22.8963 7.0483 22.8963C6.77557 22.8963 6.5483 22.9318 6.36648 23.0028C6.18466 23.0739 6.0483 23.1719 5.95739 23.2969C5.86648 23.419 5.8196 23.5597 5.81676 23.7188C5.81108 23.8494 5.83665 23.9645 5.89347 24.0639C5.95313 24.1634 6.03835 24.2514 6.14915 24.3281C6.26278 24.402 6.39915 24.4673 6.55824 24.5241C6.71733 24.581 6.89631 24.6307 7.09517 24.6733L7.84517 24.8438C8.27699 24.9375 8.65767 25.0625 8.98722 25.2188C9.3196 25.375 9.59801 25.5611 9.82244 25.777C10.0497 25.9929 10.2216 26.2415 10.3381 26.5227C10.4545 26.804 10.5142 27.1193 10.517 27.4688C10.5142 28.0199 10.375 28.4929 10.0994 28.8878C9.82386 29.2827 9.42756 29.5852 8.91051 29.7955C8.39631 30.0057 7.77557 30.1108 7.0483 30.1108C6.31818 30.1108 5.68182 30.0014 5.1392 29.7827C4.59659 29.5639 4.17472 29.2315 3.87358 28.7855C3.57244 28.3395 3.41761 27.7756 3.40909 27.0938H5.42898C5.44602 27.375 5.52131 27.6094 5.65483 27.7969C5.78835 27.9844 5.97159 28.1264 6.20455 28.223C6.44034 28.3196 6.71307 28.3679 7.02273 28.3679C7.30682 28.3679 7.5483 28.3295 7.74716 28.2528C7.94886 28.1761 8.10369 28.0696 8.21165 27.9332C8.3196 27.7969 8.375 27.6406 8.37784 27.4645C8.375 27.2997 8.32386 27.1591 8.22443 27.0426C8.125 26.9233 7.97159 26.821 7.7642 26.7358C7.55966 26.6477 7.2983 26.5668 6.98011 26.4929L6.06818 26.2798C5.3125 26.1065 4.71733 25.8267 4.28267 25.4403C3.84801 25.0511 3.6321 24.5256 3.63494 23.8636C3.6321 23.3239 3.77699 22.8509 4.0696 22.4446C4.36222 22.0384 4.76705 21.7216 5.28409 21.4943C5.80114 21.267 6.39063 21.1534 7.05256 21.1534C7.72869 21.1534 8.31534 21.2685 8.8125 21.4986C9.3125 21.7259 9.70028 22.0455 9.97585 22.4574C10.2514 22.8693 10.392 23.3466 10.3977 23.8892H8.37784ZM14.6378 30.1236C13.9474 30.1236 13.3551 29.9815 12.8608 29.6974C12.3693 29.4134 11.9915 29.0185 11.7273 28.5128C11.4631 28.0043 11.331 27.4162 11.331 26.7486C11.331 26.0781 11.4631 25.4901 11.7273 24.9844C11.9943 24.4759 12.3736 24.0795 12.8651 23.7955C13.3594 23.5114 13.9489 23.3693 14.6335 23.3693C15.2386 23.3693 15.7656 23.4787 16.2145 23.6974C16.6662 23.9162 17.0185 24.2259 17.2713 24.6264C17.527 25.0241 17.6619 25.4915 17.6761 26.0284H15.7287C15.6889 25.6932 15.5753 25.4304 15.3878 25.2401C15.2031 25.0497 14.9616 24.9545 14.6634 24.9545C14.4219 24.9545 14.2102 25.0227 14.0284 25.1591C13.8466 25.2926 13.7045 25.4915 13.6023 25.7557C13.5028 26.017 13.4531 26.3409 13.4531 26.7273C13.4531 27.1136 13.5028 27.4403 13.6023 27.7074C13.7045 27.9716 13.8466 28.1719 14.0284 28.3082C14.2102 28.4418 14.4219 28.5085 14.6634 28.5085C14.8565 28.5085 15.027 28.4673 15.1747 28.3849C15.3253 28.3026 15.4489 28.1818 15.5455 28.0227C15.642 27.8608 15.7031 27.6648 15.7287 27.4347H17.6761C17.6562 27.9744 17.5213 28.446 17.2713 28.8494C17.0241 29.2528 16.6761 29.5668 16.2273 29.7912C15.7813 30.0128 15.2514 30.1236 14.6378 30.1236ZM20.8263 26.267V30H18.7425V21.2727H20.7582V24.6562H20.8306C20.9783 24.2528 21.2198 23.9375 21.555 23.7102C21.8931 23.483 22.3065 23.3693 22.7951 23.3693C23.2553 23.3693 23.6559 23.4716 23.9968 23.6761C24.3377 23.8778 24.6019 24.1634 24.7894 24.5327C24.9798 24.902 25.0735 25.3338 25.0707 25.8281V30H22.9869V26.2372C22.9897 25.8736 22.8988 25.5895 22.7141 25.3849C22.5295 25.1804 22.2695 25.0781 21.9343 25.0781C21.7156 25.0781 21.5224 25.1264 21.3548 25.223C21.19 25.3168 21.0607 25.4517 20.967 25.6278C20.8761 25.804 20.8292 26.017 20.8263 26.267ZM29.4268 30.1236C28.7393 30.1236 28.1484 29.983 27.6541 29.7017C27.1626 29.4176 26.7834 29.0227 26.5163 28.517C26.2521 28.0085 26.12 27.419 26.12 26.7486C26.12 26.0753 26.2521 25.4858 26.5163 24.9801C26.7834 24.4716 27.1626 24.0767 27.6541 23.7955C28.1484 23.5114 28.7393 23.3693 29.4268 23.3693C30.1143 23.3693 30.7038 23.5114 31.1953 23.7955C31.6896 24.0767 32.0689 24.4716 32.3331 24.9801C32.6001 25.4858 32.7337 26.0753 32.7337 26.7486C32.7337 27.419 32.6001 28.0085 32.3331 28.517C32.0689 29.0227 31.6896 29.4176 31.1953 29.7017C30.7038 29.983 30.1143 30.1236 29.4268 30.1236ZM29.4396 28.5511C29.6896 28.5511 29.9013 28.4744 30.0746 28.321C30.2479 28.1676 30.38 27.9545 30.4709 27.6818C30.5646 27.4091 30.6115 27.0937 30.6115 26.7358C30.6115 26.3722 30.5646 26.054 30.4709 25.7812C30.38 25.5085 30.2479 25.2955 30.0746 25.142C29.9013 24.9886 29.6896 24.9119 29.4396 24.9119C29.1811 24.9119 28.9624 24.9886 28.7834 25.142C28.6072 25.2955 28.4723 25.5085 28.3786 25.7812C28.2876 26.054 28.2422 26.3722 28.2422 26.7358C28.2422 27.0937 28.2876 27.4091 28.3786 27.6818C28.4723 27.9545 28.6072 28.1676 28.7834 28.321C28.9624 28.4744 29.1811 28.5511 29.4396 28.5511Z" fill="#FFC13B"/>
<path d="M35.0668 21.2727V30H34.0611V21.2727H35.0668ZM38.8349 30.1534C38.4201 30.1534 38.0437 30.0753 37.7056 29.919C37.3675 29.7599 37.0991 29.5312 36.9002 29.233C36.7013 28.9318 36.6019 28.5682 36.6019 28.142C36.6019 27.767 36.6758 27.4631 36.8235 27.2301C36.9712 26.9943 37.1687 26.8097 37.4158 26.6761C37.663 26.5426 37.9357 26.4432 38.234 26.3778C38.5352 26.3097 38.8377 26.2557 39.1417 26.2159C39.5394 26.1648 39.8619 26.1264 40.109 26.1009C40.359 26.0724 40.5408 26.0256 40.6545 25.9602C40.771 25.8949 40.8292 25.7812 40.8292 25.6193V25.5852C40.8292 25.1648 40.7141 24.8381 40.484 24.6051C40.2567 24.3722 39.9116 24.2557 39.4485 24.2557C38.9684 24.2557 38.592 24.3608 38.3192 24.571C38.0465 24.7812 37.8548 25.0057 37.744 25.2443L36.7894 24.9034C36.9599 24.5057 37.1871 24.196 37.4712 23.9744C37.7582 23.75 38.0707 23.5937 38.4087 23.5057C38.7496 23.4148 39.0849 23.3693 39.4144 23.3693C39.6246 23.3693 39.8661 23.3949 40.1388 23.446C40.4144 23.4943 40.68 23.5952 40.9357 23.7486C41.1942 23.902 41.4087 24.1335 41.5792 24.4432C41.7496 24.7528 41.8349 25.1676 41.8349 25.6875V30H40.8292V29.1136H40.7781C40.7099 29.2557 40.5962 29.4077 40.4371 29.5696C40.2781 29.7315 40.0664 29.8693 39.8022 29.983C39.538 30.0966 39.2156 30.1534 38.8349 30.1534ZM38.9883 29.25C39.386 29.25 39.7212 29.1719 39.994 29.0156C40.2695 28.8594 40.4769 28.6577 40.6161 28.4105C40.7582 28.1634 40.8292 27.9034 40.8292 27.6307V26.7102C40.7866 26.7614 40.6928 26.8082 40.5479 26.8509C40.4059 26.8906 40.2411 26.9261 40.0536 26.9574C39.869 26.9858 39.6886 27.0114 39.5124 27.0341C39.3391 27.054 39.1985 27.071 39.0906 27.0852C38.8292 27.1193 38.5849 27.1747 38.3576 27.2514C38.1332 27.3253 37.9513 27.4375 37.8121 27.5881C37.6758 27.7358 37.6076 27.9375 37.6076 28.1932C37.6076 28.5426 37.7369 28.8068 37.9954 28.9858C38.2567 29.1619 38.5877 29.25 38.9883 29.25ZM44.4034 30.0682C44.1932 30.0682 44.0128 29.9929 43.8622 29.8423C43.7116 29.6918 43.6364 29.5114 43.6364 29.3011C43.6364 29.0909 43.7116 28.9105 43.8622 28.7599C44.0128 28.6094 44.1932 28.5341 44.4034 28.5341C44.6136 28.5341 44.794 28.6094 44.9446 28.7599C45.0952 28.9105 45.1705 29.0909 45.1705 29.3011C45.1705 29.4403 45.1349 29.5682 45.0639 29.6847C44.9957 29.8011 44.9034 29.8949 44.7869 29.9659C44.6733 30.0341 44.5455 30.0682 44.4034 30.0682Z" fill="black"/>
</svg>
